<svg width="151" height="42" viewBox="0 0 151 42" fill="none" xmlns="http://www.w3.org/2000/svg">
<path d="M65.74 23.664V31H61.792V11.232H68.988C71.3213 11.232 73.076 11.792 74.252 12.912C75.4467 14.032 76.044 15.5533 76.044 17.476C76.044 19.3613 75.428 20.864 74.196 21.984C72.9827 23.104 71.2467 23.664 68.988 23.664H65.74ZM68.568 20.5C70.8827 20.5 72.04 19.492 72.04 17.476C72.04 16.4867 71.7693 15.7307 71.228 15.208C70.6867 14.6853 69.8 14.424 68.568 14.424H65.74V20.5H68.568ZM84.6844 15.292C85.9911 15.292 87.1111 15.6 88.0444 16.216C88.9777 16.832 89.6404 17.6627 90.0324 18.708V15.488H93.9524V31H90.0324V27.752C89.6404 28.7973 88.9777 29.6373 88.0444 30.272C87.1111 30.888 85.9911 31.196 84.6844 31.196C83.3777 31.196 82.2017 30.8787 81.1564 30.244C80.1111 29.6093 79.2897 28.6947 78.6924 27.5C78.1137 26.2867 77.8244 24.868 77.8244 23.244C77.8244 21.62 78.1137 20.2107 78.6924 19.016C79.2897 17.8027 80.1111 16.8787 81.1564 16.244C82.2017 15.6093 83.3777 15.292 84.6844 15.292ZM85.9164 18.736C84.6844 18.736 83.6951 19.1373 82.9484 19.94C82.2017 20.7427 81.8284 21.844 81.8284 23.244C81.8284 24.644 82.2017 25.7453 82.9484 26.548C83.6951 27.332 84.6844 27.724 85.9164 27.724C87.1111 27.724 88.0911 27.3227 88.8564 26.52C89.6404 25.6987 90.0324 24.6067 90.0324 23.244C90.0324 21.8627 89.6404 20.7707 88.8564 19.968C88.0911 19.1467 87.1111 18.736 85.9164 18.736ZM100.19 15.488L104.418 26.016L108.338 15.488H112.678L103.186 38.392H98.8183L102.318 30.552L95.7943 15.488H100.19ZM123.778 15.264C125.57 15.264 126.998 15.852 128.062 17.028C129.126 18.204 129.658 19.856 129.658 21.984V31H125.738V22.432C125.738 21.2 125.421 20.248 124.786 19.576C124.151 18.8853 123.283 18.54 122.182 18.54C121.062 18.54 120.166 18.904 119.494 19.632C118.822 20.36 118.486 21.4053 118.486 22.768V31H114.538V15.488H118.486V18.596C118.897 17.5507 119.569 16.7387 120.502 16.16C121.454 15.5627 122.546 15.264 123.778 15.264ZM139.208 15.292C140.515 15.292 141.635 15.6 142.568 16.216C143.501 16.832 144.164 17.6627 144.556 18.708V15.488H148.476V31H144.556V27.752C144.164 28.7973 143.501 29.6373 142.568 30.272C141.635 30.888 140.515 31.196 139.208 31.196C137.901 31.196 136.725 30.8787 135.68 30.244C134.635 29.6093 133.813 28.6947 133.216 27.5C132.637 26.2867 132.348 24.868 132.348 23.244C132.348 21.62 132.637 20.2107 133.216 19.016C133.813 17.8027 134.635 16.8787 135.68 16.244C136.725 15.6093 137.901 15.292 139.208 15.292ZM140.44 18.736C139.208 18.736 138.219 19.1373 137.472 19.94C136.725 20.7427 136.352 21.844 136.352 23.244C136.352 24.644 136.725 25.7453 137.472 26.548C138.219 27.332 139.208 27.724 140.44 27.724C141.635 27.724 142.615 27.3227 143.38 26.52C144.164 25.6987 144.556 24.6067 144.556 23.244C144.556 21.8627 144.164 20.7707 143.38 19.968C142.615 19.1467 141.635 18.736 140.44 18.736Z" fill="#070F18"/>
<rect y="4" width="48" height="34" rx="10" fill="#F5F6FB"/>
<circle cx="15" cy="21" r="6" fill="#207DFF"/>
<circle cx="33" cy="21" r="6" fill="#F06157"/>
</svg>
